<svg width="25" height="25" viewBox="0 0 25 25" fill="none" xmlns="http://www.w3.org/2000/svg">
<g clip-path="url(#clip0_3_3493)">
<path d="M18.565 14.7398C17.7117 14.7398 16.9917 15.0465 16.405 15.6598C15.8184 16.2732 15.525 16.9932 15.525 17.8198C15.525 18.6465 15.8184 19.3532 16.405 19.9398C16.9917 20.5265 17.6984 20.8198 18.525 20.8198C19.3517 20.8198 20.0584 20.5265 20.645 19.9398C21.2317 19.3532 21.525 18.6465 21.525 17.8198C21.525 16.9932 21.2317 16.2732 20.645 15.6598C20.0584 15.0465 19.365 14.7398 18.565 14.7398ZM18.565 19.2998C18.1384 19.2998 17.7784 19.1532 17.485 18.8598C17.1917 18.5665 17.045 18.2065 17.045 17.7798C17.045 17.3532 17.1917 16.9932 17.485 16.6998C17.7784 16.4065 18.125 16.2598 18.525 16.2598C18.925 16.2598 19.2717 16.4065 19.565 16.6998C19.8584 16.9932 20.005 17.3532 20.005 17.7798C20.005 18.2065 19.8584 18.5665 19.565 18.8598C19.2717 19.1532 18.9384 19.2998 18.565 19.2998ZM8.16503 14.7398C7.36503 14.7398 6.6717 15.0465 6.08503 15.6598C5.49836 16.2732 5.20503 16.9932 5.20503 17.8198C5.20503 18.6465 5.49836 19.3532 6.08503 19.9398C6.6717 20.5265 7.37836 20.8198 8.20503 20.8198C9.0317 20.8198 9.73836 20.5265 10.325 19.9398C10.9117 19.3532 11.205 18.6465 11.205 17.8198C11.205 16.9932 10.9117 16.2732 10.325 15.6598C9.73836 15.0465 9.01836 14.7398 8.16503 14.7398ZM8.16503 19.2998C7.7917 19.2998 7.44503 19.1532 7.12503 18.8598C6.80503 18.5665 6.64503 18.2065 6.64503 17.7798C6.64503 17.3532 6.80503 16.9932 7.12503 16.6998C7.44503 16.4065 7.80503 16.2598 8.20503 16.2598C8.60503 16.2598 8.9517 16.4065 9.24503 16.6998C9.53836 16.9932 9.68503 17.3532 9.68503 17.7798C9.68503 18.2065 9.53836 18.5665 9.24503 18.8598C8.9517 19.1532 8.5917 19.2998 8.16503 19.2998ZM20.565 6.09982C20.405 5.83316 20.1917 5.69982 19.925 5.69982H15.925V7.21982H19.445L21.525 11.2998L22.805 10.6598L20.565 6.09982ZM10.565 17.0598H16.245V18.5798H10.565V17.0598ZM5.92503 17.0598H3.28503C3.0717 17.0598 2.89836 17.1398 2.76503 17.2998C2.6317 17.4598 2.56503 17.6332 2.56503 17.8198C2.56503 18.0065 2.6317 18.1798 2.76503 18.3398C2.89836 18.4998 3.0717 18.5798 3.28503 18.5798H5.92503C6.13836 18.5798 6.3117 18.4998 6.44503 18.3398C6.57836 18.1798 6.64503 18.0065 6.64503 17.8198C6.64503 17.6332 6.57836 17.4598 6.44503 17.2998C6.3117 17.1398 6.13836 17.0598 5.92503 17.0598ZM24.245 12.4198L22.725 10.4998C22.6184 10.3398 22.4317 10.2598 22.165 10.2598H16.645V4.89982C16.645 4.73982 16.5784 4.57982 16.445 4.41982C16.3117 4.25982 16.1384 4.17982 15.925 4.17982H3.28503C3.0717 4.17982 2.89836 4.25982 2.76503 4.41982C2.6317 4.57982 2.56503 4.75316 2.56503 4.93982C2.56503 5.12649 2.6317 5.29982 2.76503 5.45982C2.89836 5.61982 3.0717 5.69982 3.28503 5.69982H15.125V10.9798C15.125 11.1932 15.205 11.3798 15.365 11.5398C15.525 11.6998 15.7117 11.7798 15.925 11.7798H21.765L22.885 13.1398V17.0598H20.805C20.5917 17.0598 20.405 17.1398 20.245 17.2998C20.085 17.4598 20.005 17.6332 20.005 17.8198C20.005 18.0065 20.085 18.1798 20.245 18.3398C20.405 18.4998 20.5917 18.5798 20.805 18.5798H23.685C23.845 18.5798 24.005 18.4998 24.165 18.3398C24.325 18.1798 24.405 17.9932 24.405 17.7798V12.8998C24.405 12.7398 24.3517 12.5798 24.245 12.4198ZM5.84503 13.2198H2.40503C2.1917 13.2198 2.00503 13.2998 1.84503 13.4598C1.68503 13.6198 1.60503 13.8065 1.60503 14.0198C1.60503 14.2332 1.68503 14.4065 1.84503 14.5398C2.00503 14.6732 2.1917 14.7398 2.40503 14.7398H5.84503C6.05836 14.7398 6.24503 14.6732 6.40503 14.5398C6.56503 14.4065 6.64503 14.2332 6.64503 14.0198C6.64503 13.8065 6.56503 13.6198 6.40503 13.4598C6.24503 13.2998 6.05836 13.2198 5.84503 13.2198ZM7.60503 10.2598H1.12503C0.965029 10.2598 0.805029 10.3265 0.645029 10.4598C0.485029 10.5932 0.405029 10.7665 0.405029 10.9798C0.405029 11.1932 0.485029 11.3798 0.645029 11.5398C0.805029 11.6998 0.965029 11.7798 1.12503 11.7798H7.60503C7.81836 11.7798 8.00503 11.6998 8.16503 11.5398C8.32503 11.3798 8.40503 11.1932 8.40503 10.9798C8.40503 10.7665 8.32503 10.5932 8.16503 10.4598C8.00503 10.3265 7.81836 10.2598 7.60503 10.2598ZM8.88503 7.29982H2.40503C2.1917 7.29982 2.00503 7.36649 1.84503 7.49982C1.68503 7.63316 1.60503 7.80649 1.60503 8.01982C1.60503 8.23316 1.68503 8.41982 1.84503 8.57982C2.00503 8.73982 2.1917 8.81982 2.40503 8.81982H8.88503C9.04503 8.81982 9.20503 8.73982 9.36503 8.57982C9.52503 8.41982 9.60503 8.23316 9.60503 8.01982C9.60503 7.80649 9.52503 7.63316 9.36503 7.49982C9.20503 7.36649 9.04503 7.29982 8.88503 7.29982Z" fill="#212121"/>
</g>
<defs>
<clipPath id="clip0_3_3493">
<rect width="24.81" height="24" fill="white" transform="matrix(1 0 0 -1 0 24.5)"/>
</clipPath>
</defs>
</svg>
