<svg width="25" height="25" viewBox="0 0 25 25" fill="none" xmlns="http://www.w3.org/2000/svg">
<g clip-path="url(#clip0_3_3593)">
<path d="M18.565 15.0601C17.7117 15.0601 16.9917 15.3668 16.405 15.9801C15.8184 16.5935 15.525 17.3135 15.525 18.1401C15.525 18.9668 15.8184 19.6735 16.405 20.2601C16.9917 20.8468 17.6984 21.1401 18.525 21.1401C19.3517 21.1401 20.0584 20.8468 20.645 20.2601C21.2317 19.6735 21.525 18.9668 21.525 18.1401C21.525 17.3135 21.2317 16.5935 20.645 15.9801C20.0584 15.3668 19.365 15.0601 18.565 15.0601ZM18.565 19.6201C18.1384 19.6201 17.7784 19.4735 17.485 19.1801C17.1917 18.8868 17.045 18.5268 17.045 18.1001C17.045 17.6735 17.1917 17.3135 17.485 17.0201C17.7784 16.7268 18.125 16.5801 18.525 16.5801C18.925 16.5801 19.2717 16.7268 19.565 17.0201C19.8584 17.3135 20.005 17.6735 20.005 18.1001C20.005 18.5268 19.8584 18.8868 19.565 19.1801C19.2717 19.4735 18.9384 19.6201 18.565 19.6201ZM8.16503 15.0601C7.36503 15.0601 6.6717 15.3668 6.08503 15.9801C5.49836 16.5935 5.20503 17.3135 5.20503 18.1401C5.20503 18.9668 5.49836 19.6735 6.08503 20.2601C6.6717 20.8468 7.37836 21.1401 8.20503 21.1401C9.0317 21.1401 9.73836 20.8468 10.325 20.2601C10.9117 19.6735 11.205 18.9668 11.205 18.1401C11.205 17.3135 10.9117 16.5935 10.325 15.9801C9.73836 15.3668 9.01836 15.0601 8.16503 15.0601ZM8.16503 19.6201C7.7917 19.6201 7.44503 19.4735 7.12503 19.1801C6.80503 18.8868 6.64503 18.5268 6.64503 18.1001C6.64503 17.6735 6.80503 17.3135 7.12503 17.0201C7.44503 16.7268 7.80503 16.5801 8.20503 16.5801C8.60503 16.5801 8.9517 16.7268 9.24503 17.0201C9.53836 17.3135 9.68503 17.6735 9.68503 18.1001C9.68503 18.5268 9.53836 18.8868 9.24503 19.1801C8.9517 19.4735 8.5917 19.6201 8.16503 19.6201ZM20.565 6.42014C20.405 6.15347 20.1917 6.02014 19.925 6.02014H15.925V7.54014H19.445L21.525 11.6201L22.805 10.9801L20.565 6.42014ZM10.565 17.3801H16.245V18.9001H10.565V17.3801ZM5.92503 17.3801H3.28503C3.0717 17.3801 2.89836 17.4601 2.76503 17.6201C2.6317 17.7801 2.56503 17.9535 2.56503 18.1401C2.56503 18.3268 2.6317 18.5001 2.76503 18.6601C2.89836 18.8201 3.0717 18.9001 3.28503 18.9001H5.92503C6.13836 18.9001 6.3117 18.8201 6.44503 18.6601C6.57836 18.5001 6.64503 18.3268 6.64503 18.1401C6.64503 17.9535 6.57836 17.7801 6.44503 17.6201C6.3117 17.4601 6.13836 17.3801 5.92503 17.3801ZM24.245 12.7401L22.725 10.8201C22.6184 10.6601 22.4317 10.5801 22.165 10.5801H16.645V5.22014C16.645 5.06014 16.5784 4.90014 16.445 4.74014C16.3117 4.58014 16.1384 4.50014 15.925 4.50014H3.28503C3.0717 4.50014 2.89836 4.58014 2.76503 4.74014C2.6317 4.90014 2.56503 5.07347 2.56503 5.26014C2.56503 5.4468 2.6317 5.62014 2.76503 5.78014C2.89836 5.94014 3.0717 6.02014 3.28503 6.02014H15.125V11.3001C15.125 11.5135 15.205 11.7001 15.365 11.8601C15.525 12.0201 15.7117 12.1001 15.925 12.1001H21.765L22.885 13.4601V17.3801H20.805C20.5917 17.3801 20.405 17.4601 20.245 17.6201C20.085 17.7801 20.005 17.9535 20.005 18.1401C20.005 18.3268 20.085 18.5001 20.245 18.6601C20.405 18.8201 20.5917 18.9001 20.805 18.9001H23.685C23.845 18.9001 24.005 18.8201 24.165 18.6601C24.325 18.5001 24.405 18.3135 24.405 18.1001V13.2201C24.405 13.0601 24.3517 12.9001 24.245 12.7401ZM5.84503 13.5401H2.40503C2.1917 13.5401 2.00503 13.6201 1.84503 13.7801C1.68503 13.9401 1.60503 14.1268 1.60503 14.3401C1.60503 14.5535 1.68503 14.7268 1.84503 14.8601C2.00503 14.9935 2.1917 15.0601 2.40503 15.0601H5.84503C6.05836 15.0601 6.24503 14.9935 6.40503 14.8601C6.56503 14.7268 6.64503 14.5535 6.64503 14.3401C6.64503 14.1268 6.56503 13.9401 6.40503 13.7801C6.24503 13.6201 6.05836 13.5401 5.84503 13.5401ZM7.60503 10.5801H1.12503C0.965029 10.5801 0.805029 10.6468 0.645029 10.7801C0.485029 10.9135 0.405029 11.0868 0.405029 11.3001C0.405029 11.5135 0.485029 11.7001 0.645029 11.8601C0.805029 12.0201 0.965029 12.1001 1.12503 12.1001H7.60503C7.81836 12.1001 8.00503 12.0201 8.16503 11.8601C8.32503 11.7001 8.40503 11.5135 8.40503 11.3001C8.40503 11.0868 8.32503 10.9135 8.16503 10.7801C8.00503 10.6468 7.81836 10.5801 7.60503 10.5801ZM8.88503 7.62014H2.40503C2.1917 7.62014 2.00503 7.6868 1.84503 7.82014C1.68503 7.95347 1.60503 8.1268 1.60503 8.34014C1.60503 8.55347 1.68503 8.74014 1.84503 8.90014C2.00503 9.06014 2.1917 9.14014 2.40503 9.14014H8.88503C9.04503 9.14014 9.20503 9.06014 9.36503 8.90014C9.52503 8.74014 9.60503 8.55347 9.60503 8.34014C9.60503 8.1268 9.52503 7.95347 9.36503 7.82014C9.20503 7.6868 9.04503 7.62014 8.88503 7.62014Z" fill="#212121"/>
</g>
<defs>
<clipPath id="clip0_3_3593">
<rect width="24.81" height="24" fill="white" transform="matrix(1 0 0 -1 0 24.8203)"/>
</clipPath>
</defs>
</svg>
