<svg width="29" height="35" viewBox="0 0 29 35" fill="none" xmlns="http://www.w3.org/2000/svg">
<path d="M20.095 19.7969V20.3281C20.095 20.5495 20.0175 20.7376 19.8625 20.8926C19.7076 21.0475 19.5194 21.125 19.2981 21.125H19.0325L18.1692 27.2012C18.1249 27.4447 18.0253 27.666 17.8704 27.8652C17.7375 28.0866 17.5494 28.2526 17.3059 28.3633C17.0846 28.4961 16.8411 28.5625 16.5754 28.5625H4.4895C4.09106 28.5625 3.7369 28.4297 3.427 28.1641C3.13924 27.9206 2.96216 27.5996 2.89575 27.2012L2.03247 21.125H1.76685C1.54549 21.125 1.35734 21.0475 1.20239 20.8926C1.04744 20.7376 0.969971 20.5495 0.969971 20.3281V19.7969C0.969971 19.5755 1.04744 19.3874 1.20239 19.2324C1.35734 19.0775 1.54549 19 1.76685 19H3.99146L7.54419 14.1191C7.72127 13.8757 7.95369 13.7318 8.24146 13.6875C8.52922 13.6432 8.79484 13.7096 9.03833 13.8867C9.28182 14.0638 9.4257 14.2962 9.46997 14.584C9.51424 14.8717 9.44784 15.1374 9.27075 15.3809L6.6145 19H14.4504L11.7942 15.3809C11.6171 15.1374 11.5507 14.8717 11.595 14.584C11.6392 14.2962 11.7831 14.0638 12.0266 13.8867C12.2701 13.7096 12.5357 13.6432 12.8235 13.6875C13.1112 13.7318 13.3437 13.8757 13.5208 14.1191L17.0735 19H19.2981C19.5194 19 19.7076 19.0775 19.8625 19.2324C20.0175 19.3874 20.095 19.5755 20.095 19.7969ZM11.3293 25.6406V21.9219C11.3293 21.7005 11.2519 21.5124 11.0969 21.3574C10.942 21.2025 10.7538 21.125 10.5325 21.125C10.3111 21.125 10.123 21.2025 9.96802 21.3574C9.81307 21.5124 9.7356 21.7005 9.7356 21.9219V25.6406C9.7356 25.862 9.81307 26.0501 9.96802 26.2051C10.123 26.36 10.3111 26.4375 10.5325 26.4375C10.7538 26.4375 10.942 26.36 11.0969 26.2051C11.2519 26.0501 11.3293 25.862 11.3293 25.6406ZM15.0481 25.6406V21.9219C15.0481 21.7005 14.9706 21.5124 14.8157 21.3574C14.6607 21.2025 14.4726 21.125 14.2512 21.125C14.0299 21.125 13.8417 21.2025 13.6868 21.3574C13.5318 21.5124 13.4543 21.7005 13.4543 21.9219V25.6406C13.4543 25.862 13.5318 26.0501 13.6868 26.2051C13.8417 26.36 14.0299 26.4375 14.2512 26.4375C14.4726 26.4375 14.6607 26.36 14.8157 26.2051C14.9706 26.0501 15.0481 25.862 15.0481 25.6406ZM7.6106 25.6406V21.9219C7.6106 21.7005 7.53312 21.5124 7.37817 21.3574C7.22323 21.2025 7.03507 21.125 6.81372 21.125C6.59237 21.125 6.40422 21.2025 6.24927 21.3574C6.09432 21.5124 6.01685 21.7005 6.01685 21.9219V25.6406C6.01685 25.862 6.09432 26.0501 6.24927 26.2051C6.40422 26.36 6.59237 26.4375 6.81372 26.4375C7.03507 26.4375 7.22323 26.36 7.37817 26.2051C7.53312 26.0501 7.6106 25.862 7.6106 25.6406Z" fill="#00A149"/>
<rect x="12.09" y="0.5" width="16" height="16" rx="8" fill="#212121"/>
<path d="M20.2567 13.144C19.6887 13.144 19.2167 13.024 18.8407 12.784C18.4727 12.544 18.1927 12.212 18.0007 11.788C17.8167 11.364 17.7247 10.876 17.7247 10.324V6.016C17.7247 5.448 17.8127 4.952 17.9887 4.528C18.1727 4.096 18.4487 3.76 18.8167 3.52C19.1927 3.28 19.6727 3.16 20.2567 3.16C20.8407 3.16 21.3167 3.28 21.6847 3.52C22.0607 3.76 22.3367 4.096 22.5127 4.528C22.6967 4.952 22.7887 5.448 22.7887 6.016V10.324C22.7887 10.876 22.6927 11.364 22.5007 11.788C22.3167 12.212 22.0367 12.544 21.6607 12.784C21.2927 13.024 20.8247 13.144 20.2567 13.144ZM20.2567 11.716C20.5047 11.716 20.6887 11.64 20.8087 11.488C20.9287 11.336 21.0087 11.152 21.0487 10.936C21.0887 10.72 21.1087 10.508 21.1087 10.3V6.04C21.1087 5.816 21.0887 5.596 21.0487 5.38C21.0167 5.156 20.9407 4.968 20.8207 4.816C20.7007 4.664 20.5127 4.588 20.2567 4.588C20.0007 4.588 19.8127 4.664 19.6927 4.816C19.5727 4.968 19.4927 5.156 19.4527 5.38C19.4207 5.596 19.4047 5.816 19.4047 6.04V10.3C19.4047 10.508 19.4247 10.72 19.4647 10.936C19.5127 11.152 19.5967 11.336 19.7167 11.488C19.8367 11.64 20.0167 11.716 20.2567 11.716Z" fill="white"/>
</svg>
