<svg width="26" height="25" viewBox="0 0 26 25" fill="none" xmlns="http://www.w3.org/2000/svg">
<g clip-path="url(#clip0_3_3570)">
<path d="M19.2723 14.9097C18.4186 14.9097 17.6983 15.2164 17.1114 15.8297C16.5245 16.4431 16.2311 17.1631 16.2311 17.9897C16.2311 18.8164 16.5245 19.5231 17.1114 20.1097C17.6983 20.6964 18.4053 20.9897 19.2323 20.9897C20.0593 20.9897 20.7662 20.6964 21.3531 20.1097C21.94 19.5231 22.2335 18.8164 22.2335 17.9897C22.2335 17.1631 21.94 16.4431 21.3531 15.8297C20.7662 15.2164 20.0726 14.9097 19.2723 14.9097ZM19.2723 19.4697C18.8455 19.4697 18.4853 19.3231 18.1919 19.0297C17.8984 18.7364 17.7517 18.3764 17.7517 17.9497C17.7517 17.5231 17.8984 17.1631 18.1919 16.8697C18.4853 16.5764 18.8321 16.4297 19.2323 16.4297C19.6324 16.4297 19.9793 16.5764 20.2727 16.8697C20.5662 17.1631 20.7129 17.5231 20.7129 17.9497C20.7129 18.3764 20.5662 18.7364 20.2727 19.0297C19.9793 19.3231 19.6458 19.4697 19.2723 19.4697ZM8.86811 14.9097C8.06779 14.9097 7.37417 15.2164 6.78727 15.8297C6.20037 16.4431 5.90692 17.1631 5.90692 17.9897C5.90692 18.8164 6.20037 19.5231 6.78727 20.1097C7.37417 20.6964 8.08112 20.9897 8.90812 20.9897C9.73512 20.9897 10.4421 20.6964 11.029 20.1097C11.6159 19.5231 11.9093 18.8164 11.9093 17.9897C11.9093 17.1631 11.6159 16.4431 11.029 15.8297C10.4421 15.2164 9.72179 14.9097 8.86811 14.9097ZM8.86811 19.4697C8.49462 19.4697 8.14782 19.3231 7.82769 19.0297C7.50756 18.7364 7.3475 18.3764 7.3475 17.9497C7.3475 17.5231 7.50756 17.1631 7.82769 16.8697C8.14782 16.5764 8.50796 16.4297 8.90812 16.4297C9.30829 16.4297 9.65509 16.5764 9.94854 16.8697C10.242 17.1631 10.3887 17.5231 10.3887 17.9497C10.3887 18.3764 10.242 18.7364 9.94854 19.0297C9.65509 19.3231 9.29495 19.4697 8.86811 19.4697ZM21.2731 6.26975C21.113 6.00308 20.8996 5.86975 20.6328 5.86975H16.6312V7.38975H20.1527L22.2335 11.4697L23.514 10.8297L21.2731 6.26975ZM11.2691 17.2297H16.9514V18.7497H11.2691V17.2297ZM6.62721 17.2297H3.98614C3.77272 17.2297 3.59932 17.3097 3.46593 17.4697C3.33254 17.6297 3.26585 17.8031 3.26585 17.9897C3.26585 18.1764 3.33254 18.3497 3.46593 18.5097C3.59932 18.6697 3.77272 18.7497 3.98614 18.7497H6.62721C6.84062 18.7497 7.01403 18.6697 7.14741 18.5097C7.2808 18.3497 7.3475 18.1764 7.3475 17.9897C7.3475 17.8031 7.2808 17.6297 7.14741 17.4697C7.01403 17.3097 6.84062 17.2297 6.62721 17.2297ZM24.9546 12.5897L23.434 10.6697C23.3273 10.5097 23.1405 10.4297 22.8738 10.4297H17.3515V5.06975C17.3515 4.90975 17.2848 4.74975 17.1514 4.58975C17.0181 4.42975 16.8447 4.34975 16.6312 4.34975H3.98614C3.77272 4.34975 3.59932 4.42975 3.46593 4.58975C3.33254 4.74975 3.26585 4.92308 3.26585 5.10975C3.26585 5.29641 3.33254 5.46975 3.46593 5.62975C3.59932 5.78975 3.77272 5.86975 3.98614 5.86975H15.8309V11.1497C15.8309 11.3631 15.9109 11.5497 16.071 11.7097C16.2311 11.8697 16.4178 11.9497 16.6312 11.9497H22.4736L23.594 13.3097V17.2297H21.5132C21.2998 17.2297 21.113 17.3097 20.953 17.4697C20.7929 17.6297 20.7129 17.8031 20.7129 17.9897C20.7129 18.1764 20.7929 18.3497 20.953 18.5097C21.113 18.6697 21.2998 18.7497 21.5132 18.7497H24.3944C24.5544 18.7497 24.7145 18.6697 24.8746 18.5097C25.0346 18.3497 25.1147 18.1631 25.1147 17.9497V13.0697C25.1147 12.9097 25.0613 12.7497 24.9546 12.5897ZM6.54717 13.3897H3.10579C2.89237 13.3897 2.70563 13.4697 2.54556 13.6297C2.3855 13.7897 2.30546 13.9764 2.30546 14.1897C2.30546 14.4031 2.3855 14.5764 2.54556 14.7097C2.70563 14.8431 2.89237 14.9097 3.10579 14.9097H6.54717C6.76059 14.9097 6.94733 14.8431 7.1074 14.7097C7.26746 14.5764 7.3475 14.4031 7.3475 14.1897C7.3475 13.9764 7.26746 13.7897 7.1074 13.6297C6.94733 13.4697 6.76059 13.3897 6.54717 13.3897ZM8.30788 10.4297H1.82527C1.66521 10.4297 1.50514 10.4964 1.34508 10.6297C1.18501 10.7631 1.10498 10.9364 1.10498 11.1497C1.10498 11.3631 1.18501 11.5497 1.34508 11.7097C1.50514 11.8697 1.66521 11.9497 1.82527 11.9497H8.30788C8.5213 11.9497 8.70804 11.8697 8.86811 11.7097C9.02817 11.5497 9.1082 11.3631 9.1082 11.1497C9.1082 10.9364 9.02817 10.7631 8.86811 10.6297C8.70804 10.4964 8.5213 10.4297 8.30788 10.4297ZM9.5884 7.46975H3.10579C2.89237 7.46975 2.70563 7.53641 2.54556 7.66975C2.3855 7.80308 2.30546 7.97641 2.30546 8.18975C2.30546 8.40308 2.3855 8.58975 2.54556 8.74975C2.70563 8.90975 2.89237 8.98975 3.10579 8.98975H9.5884C9.74846 8.98975 9.90853 8.90975 10.0686 8.74975C10.2287 8.58975 10.3087 8.40308 10.3087 8.18975C10.3087 7.97641 10.2287 7.80308 10.0686 7.66975C9.90853 7.53641 9.74846 7.46975 9.5884 7.46975Z" fill="#00A149"/>
</g>
<defs>
<clipPath id="clip0_3_3570">
<rect width="24.82" height="24" fill="white" transform="matrix(1 0 0 -1 0.699951 24.6699)"/>
</clipPath>
</defs>
</svg>
