<svg width="61" height="66" viewBox="0 0 61 66" fill="none" xmlns="http://www.w3.org/2000/svg">
<path d="M20.3409 40.4873V45.8779C20.3409 47.1279 19.7549 47.9873 18.5831 48.4561C17.4112 48.9248 16.3956 48.7295 15.5362 47.8701L5.45806 37.792C4.91118 37.2451 4.63774 36.5811 4.63774 35.7998C4.63774 35.0186 4.91118 34.3545 5.45806 33.8076L15.5362 23.7295C16.3956 22.8701 17.4112 22.6748 18.5831 23.1436C19.7549 23.6123 20.3409 24.4717 20.3409 25.7217V31.1123H55.7315C56.669 31.1123 57.1377 31.5811 57.1377 32.5186V39.0811C57.1377 40.0186 56.669 40.4873 55.7315 40.4873H20.3409Z" fill="#5C5C5B"/>
</svg>
