<svg width="13" height="13" viewBox="0 0 13 13" fill="none" xmlns="http://www.w3.org/2000/svg">
<path d="M5.69531 1.75195L6.32422 1.15039C6.45182 1.02279 6.60677 0.958984 6.78906 0.958984C6.97135 0.958984 7.1263 1.02279 7.25391 1.15039L12.5586 6.45508C12.6862 6.58268 12.75 6.73763 12.75 6.91992C12.75 7.10221 12.6862 7.25716 12.5586 7.38477L7.25391 12.6895C7.1263 12.8171 6.97135 12.8809 6.78906 12.8809C6.60677 12.8809 6.45182 12.8171 6.32422 12.6895L5.69531 12.0879C5.56771 11.9603 5.50391 11.8053 5.50391 11.623C5.52214 11.4408 5.59505 11.2858 5.72266 11.1582L9.00391 8.01367H1.15625C0.973958 8.01367 0.81901 7.94987 0.691406 7.82227C0.563802 7.69466 0.5 7.53971 0.5 7.35742V6.48242C0.5 6.30013 0.563802 6.14518 0.691406 6.01758C0.81901 5.88997 0.973958 5.82617 1.15625 5.82617H9.00391L5.72266 2.68164C5.59505 2.55404 5.52214 2.39909 5.50391 2.2168C5.50391 2.03451 5.56771 1.87956 5.69531 1.75195Z" fill="white"/>
</svg>
