<svg width="60" height="66" viewBox="0 0 60 66" fill="none" xmlns="http://www.w3.org/2000/svg">
<path d="M40.7273 31.1123V25.7217C40.7273 24.4717 41.3133 23.6123 42.4852 23.1436C43.657 22.6748 44.6727 22.8701 45.532 23.7295L55.6102 33.8076C56.0008 34.1982 56.2352 34.6279 56.3133 35.0967C56.4695 35.5654 56.4695 36.0342 56.3133 36.5029C56.2352 36.9717 56.0008 37.4014 55.6102 37.792L45.532 47.8701C44.6727 48.7295 43.657 48.9248 42.4852 48.4561C41.3133 47.9873 40.7273 47.1279 40.7273 45.8779V40.4873H5.33672C4.39922 40.4873 3.93047 40.0186 3.93047 39.0811V32.5186C3.93047 31.5811 4.39922 31.1123 5.33672 31.1123H40.7273Z" fill="#5C5C5B"/>
</svg>
