<svg width="53" height="53" viewBox="0 0 53 53" fill="none" xmlns="http://www.w3.org/2000/svg">
<path d="M51.1434 25.6001V22.4801C51.1434 20.5157 50.45 18.869 49.0634 17.5401C47.6767 16.2112 46.0589 15.5468 44.21 15.5468H33.4634C32.4234 15.5468 31.4412 15.7779 30.5167 16.2401L30.69 14.8534H32.0767C32.3078 14.8534 32.51 14.7957 32.6834 14.6801C32.8567 14.5645 32.9434 14.3912 32.9434 14.1601V11.9068C32.9434 10.9823 32.6256 10.2312 31.99 9.65344C31.3545 9.07566 30.6323 8.78677 29.8234 8.78677H22.5434V2.2001C22.5434 2.08455 22.4567 1.94011 22.2834 1.76677C22.11 1.59344 21.9656 1.50677 21.85 1.50677H18.9034C18.6723 1.50677 18.4989 1.59344 18.3834 1.76677C18.2678 1.94011 18.21 2.08455 18.21 2.2001V8.78677H10.93C10.1212 8.78677 9.39893 9.07566 8.76338 9.65344C8.12782 10.2312 7.81004 10.9823 7.81004 11.9068V14.1601C7.81004 14.3912 7.89671 14.5645 8.07004 14.6801C8.24338 14.7957 8.38782 14.8534 8.50338 14.8534H10.0634L10.93 27.5068H10.5834C7.9256 27.5068 5.64338 28.4601 3.73671 30.3668C1.83004 32.2734 0.876709 34.5268 0.876709 37.1268C0.876709 39.7268 1.74338 41.9512 3.47671 43.8001L1.05004 47.9601C0.934487 48.1912 0.963376 48.4223 1.13671 48.6534C1.31004 48.8845 1.57004 49.0001 1.91671 49.0001L4.86338 48.3068L5.90338 51.2534C5.90338 51.4845 6.07671 51.6579 6.42338 51.7734H6.59671C6.82782 51.7734 7.00115 51.6579 7.11671 51.4268L9.71671 46.7468H11.2767L14.05 51.4268C14.1656 51.6579 14.3389 51.7734 14.57 51.7734H14.7434C14.9745 51.6579 15.1478 51.4845 15.2634 51.2534L16.3034 48.3068L19.25 49.0001C19.5967 49.0001 19.8567 48.8845 20.03 48.6534C20.2034 48.4223 20.1745 48.1912 19.9434 47.9601L17.5167 43.8001C17.9789 43.3379 18.3256 42.8757 18.5567 42.4134H26.7034C26.9345 43.1068 27.3389 43.6845 27.9167 44.1468C28.4945 44.609 29.13 44.8401 29.8234 44.8401H47.85C48.7745 44.8401 49.5545 44.5223 50.19 43.8868C50.8256 43.2512 51.1434 42.4712 51.1434 41.5468V37.9068C51.1434 37.6757 51.0567 37.5023 50.8834 37.3868C50.71 37.2712 50.5656 37.2134 50.45 37.2134H50.2767C50.8545 36.5201 51.1434 35.7112 51.1434 34.7868C51.1434 33.5157 50.6234 32.4757 49.5834 31.6668C50.6234 30.9734 51.1434 29.9912 51.1434 28.7201C51.1434 27.7957 50.8545 26.9868 50.2767 26.2934H50.45C50.5656 26.2934 50.71 26.2068 50.8834 26.0334C51.0567 25.8601 51.1434 25.7157 51.1434 25.6001ZM44.21 16.9334C45.7123 16.9334 47.0123 17.4823 48.11 18.5801C49.2078 19.6779 49.7567 20.9779 49.7567 22.4801V24.9068H27.9167V22.4801C27.9167 20.9779 28.4656 19.6779 29.5634 18.5801C30.6612 17.4823 31.9612 16.9334 33.4634 16.9334H44.21ZM36.5834 26.2934L34.33 28.5468L32.0767 26.2934H36.5834ZM19.5967 2.89344H21.1567V8.78677H19.5967V2.89344ZM9.19671 11.9068C9.19671 11.4445 9.37004 11.0401 9.71671 10.6934C10.0634 10.3468 10.4678 10.1734 10.93 10.1734H29.8234C30.2856 10.1734 30.6612 10.3468 30.95 10.6934C31.2389 11.0401 31.3834 11.4445 31.3834 11.9068V13.4668H9.19671V11.9068ZM6.59671 49.3468L6.07671 47.2668C5.8456 46.9201 5.55671 46.7468 5.21004 46.7468L3.13004 47.2668L4.51671 44.6668C5.67226 45.5912 6.94338 46.2268 8.33004 46.5734L6.59671 49.3468ZM2.26338 37.2134C2.26338 34.9023 3.07226 32.9379 4.69004 31.3201C6.30782 29.7023 8.24338 28.8934 10.4967 28.8934C12.75 28.8934 14.6856 29.7023 16.3034 31.3201C17.9212 32.9379 18.73 34.8734 18.73 37.1268C18.73 39.3801 17.9212 41.3157 16.3034 42.9334C14.6856 44.5512 12.75 45.3601 10.4967 45.3601C8.24338 45.3601 6.30782 44.5512 4.69004 42.9334C3.07226 41.3157 2.26338 39.409 2.26338 37.2134ZM15.9567 46.7468C15.4945 46.7468 15.2056 46.9201 15.09 47.2668L14.3967 49.3468L12.8367 46.5734C14.2234 46.2268 15.4367 45.5912 16.4767 44.6668L18.0367 47.2668L15.9567 46.7468ZM12.3167 27.6801L11.6234 14.8534H29.13L28.9567 17.1068C28.2634 17.8001 27.6856 18.609 27.2234 19.5334C26.7612 20.4579 26.53 21.4401 26.53 22.4801V25.6001C26.53 25.7157 26.6167 25.8601 26.79 26.0334C26.9634 26.2068 27.1078 26.2934 27.2234 26.2934H27.3967C26.8189 26.9868 26.53 27.7957 26.53 28.7201C26.53 29.9912 27.05 30.9734 28.09 31.6668C27.05 32.4757 26.53 33.5157 26.53 34.7868C26.53 35.7112 26.8189 36.5201 27.3967 37.2134H27.2234C27.1078 37.2134 26.9634 37.2712 26.79 37.3868C26.6167 37.5023 26.53 37.6757 26.53 37.9068V41.0268H19.4234C19.8856 39.7557 20.1167 38.4845 20.1167 37.2134C20.1167 34.9023 19.3945 32.8512 17.95 31.0601C16.5056 29.269 14.6278 28.1423 12.3167 27.6801ZM49.7567 41.5468C49.7567 42.009 49.5545 42.4423 49.15 42.8468C48.7456 43.2512 48.3123 43.4534 47.85 43.4534H29.8234C29.3612 43.4534 28.9278 43.2512 28.5234 42.8468C28.1189 42.4423 27.9167 42.009 27.9167 41.5468V38.6001H49.7567V41.5468ZM49.7567 34.7868C49.7567 35.4801 49.4967 36.0579 48.9767 36.5201C48.4567 36.9823 47.9078 37.2134 47.33 37.2134H30.3434C29.65 37.2134 29.0723 36.9823 28.61 36.5201C28.1478 36.0579 27.9167 35.4801 27.9167 34.7868C27.9167 34.0934 28.1478 33.5157 28.61 33.0534C29.0723 32.5912 29.65 32.3601 30.3434 32.3601H34.6767L38.3167 36.1734C38.4323 36.289 38.6056 36.3468 38.8367 36.3468C39.0678 36.3468 39.2412 36.289 39.3567 36.1734L42.9967 32.3601H47.33C47.9078 32.3601 48.4567 32.5912 48.9767 33.0534C49.4967 33.5157 49.7567 34.0934 49.7567 34.7868ZM36.5834 32.3601H41.09L38.8367 34.6134L36.5834 32.3601ZM49.7567 28.7201C49.7567 29.2979 49.4967 29.8179 48.9767 30.2801C48.4567 30.7423 47.9078 30.9734 47.33 30.9734H30.3434C29.65 30.9734 29.0723 30.7423 28.61 30.2801C28.1478 29.8179 27.9167 29.269 27.9167 28.6334C27.9167 27.9979 28.1189 27.4779 28.5234 27.0734C28.9278 26.669 29.4189 26.409 29.9967 26.2934L33.81 29.9334C33.9256 30.049 34.07 30.1068 34.2434 30.1068C34.4167 30.1068 34.6189 30.049 34.85 29.9334L38.49 26.2934H47.33C47.9078 26.2934 48.4567 26.5245 48.9767 26.9868C49.4967 27.449 49.7567 28.0268 49.7567 28.7201ZM10.5834 30.1068C8.61893 30.1068 6.94338 30.8001 5.55671 32.1868C4.17004 33.5734 3.47671 35.2201 3.47671 37.1268C3.47671 39.0334 4.17004 40.6801 5.55671 42.0668C6.94338 43.4534 8.61893 44.1468 10.5834 44.1468C12.5478 44.1468 14.1945 43.4534 15.5234 42.0668C16.8523 40.6801 17.5167 39.0334 17.5167 37.1268C17.5167 35.2201 16.8523 33.5734 15.5234 32.1868C14.1945 30.8001 12.5478 30.1068 10.5834 30.1068ZM10.5834 42.7601C8.9656 42.7601 7.63671 42.2112 6.59671 41.1134C5.55671 40.0157 5.03671 38.6868 5.03671 37.1268C5.03671 35.5668 5.55671 34.2379 6.59671 33.1401C7.63671 32.0423 8.93671 31.4934 10.4967 31.4934C12.0567 31.4934 13.3856 32.0423 14.4834 33.1401C15.5812 34.2379 16.13 35.5668 16.13 37.1268C16.13 38.6868 15.5812 40.0157 14.4834 41.1134C13.3856 42.2112 12.0856 42.7601 10.5834 42.7601ZM13.8767 34.6134C13.9923 34.729 14.05 34.8734 14.05 35.0468C14.05 35.2201 13.9923 35.4223 13.8767 35.6534L9.54338 39.9868C9.31226 40.1023 9.13893 40.1601 9.02338 40.1601C8.79226 40.1601 8.61893 40.1023 8.50338 39.9868L6.42338 37.9068C6.30782 37.7912 6.25004 37.6179 6.25004 37.3868C6.25004 37.1557 6.33671 36.9823 6.51004 36.8668C6.68338 36.7512 6.85671 36.6934 7.03004 36.6934C7.20338 36.6934 7.34782 36.7512 7.46338 36.8668L9.02338 38.4268L12.8367 34.6134C13.0678 34.4979 13.27 34.4401 13.4434 34.4401C13.6167 34.4401 13.7612 34.4979 13.8767 34.6134ZM41.9567 19.3601C41.9567 19.129 42.0434 18.9268 42.2167 18.7534C42.39 18.5801 42.5923 18.4934 42.8234 18.4934C43.0545 18.4934 43.2567 18.5801 43.43 18.7534C43.6034 18.9268 43.69 19.129 43.69 19.3601C43.69 19.5912 43.6034 19.7934 43.43 19.9668C43.2567 20.1401 43.0545 20.2268 42.8234 20.2268C42.5923 20.2268 42.39 20.1401 42.2167 19.9668C42.0434 19.7934 41.9567 19.5912 41.9567 19.3601ZM40.05 22.4801C40.05 22.249 40.1367 22.0468 40.31 21.8734C40.4834 21.7001 40.6856 21.6134 40.9167 21.6134C41.1478 21.6134 41.3212 21.7001 41.4367 21.8734C41.5523 22.0468 41.61 22.249 41.61 22.4801C41.61 22.7112 41.5523 22.8845 41.4367 23.0001C41.3212 23.1157 41.1478 23.1734 40.9167 23.1734C40.6856 23.1734 40.4834 23.1157 40.31 23.0001C40.1367 22.8845 40.05 22.7112 40.05 22.4801ZM44.0367 22.4801C44.0367 22.249 44.1234 22.0468 44.2967 21.8734C44.47 21.7001 44.6723 21.6134 44.9034 21.6134C45.1345 21.6134 45.3367 21.7001 45.51 21.8734C45.6834 22.0468 45.77 22.249 45.77 22.4801C45.77 22.7112 45.6834 22.8845 45.51 23.0001C45.3367 23.1157 45.1345 23.1734 44.9034 23.1734C44.6723 23.1734 44.47 23.1157 44.2967 23.0001C44.1234 22.8845 44.0367 22.7112 44.0367 22.4801ZM31.9034 22.4801C31.9034 22.249 31.99 22.0468 32.1634 21.8734C32.3367 21.7001 32.5389 21.6134 32.77 21.6134C33.0012 21.6134 33.2034 21.7001 33.3767 21.8734C33.55 22.0468 33.6367 22.249 33.6367 22.4801C33.6367 22.7112 33.55 22.8845 33.3767 23.0001C33.2034 23.1157 33.0012 23.1734 32.77 23.1734C32.5389 23.1734 32.3367 23.1157 32.1634 23.0001C31.99 22.8845 31.9034 22.7112 31.9034 22.4801ZM33.9834 19.3601C33.9834 19.129 34.07 18.9268 34.2434 18.7534C34.4167 18.5801 34.6189 18.4934 34.85 18.4934C35.0812 18.4934 35.2545 18.5801 35.37 18.7534C35.4856 18.9268 35.5434 19.129 35.5434 19.3601C35.5434 19.5912 35.4856 19.7934 35.37 19.9668C35.2545 20.1401 35.0812 20.2268 34.85 20.2268C34.6189 20.2268 34.4167 20.1401 34.2434 19.9668C34.07 19.7934 33.9834 19.5912 33.9834 19.3601ZM36.0634 22.4801C36.0634 22.249 36.1212 22.0468 36.2367 21.8734C36.3523 21.7001 36.5256 21.6134 36.7567 21.6134C36.9878 21.6134 37.19 21.7001 37.3634 21.8734C37.5367 22.0468 37.6234 22.249 37.6234 22.4801C37.6234 22.7112 37.5367 22.8845 37.3634 23.0001C37.19 23.1157 36.9878 23.1734 36.7567 23.1734C36.5256 23.1734 36.3523 23.1157 36.2367 23.0001C36.1212 22.8845 36.0634 22.7112 36.0634 22.4801ZM37.97 19.3601C37.97 19.129 38.0567 18.9268 38.23 18.7534C38.4034 18.5801 38.6056 18.4934 38.8367 18.4934C39.0678 18.4934 39.27 18.5801 39.4434 18.7534C39.6167 18.9268 39.7034 19.129 39.7034 19.3601C39.7034 19.5912 39.6167 19.7934 39.4434 19.9668C39.27 20.1401 39.0678 20.2268 38.8367 20.2268C38.6056 20.2268 38.4034 20.1401 38.23 19.9668C38.0567 19.7934 37.97 19.5912 37.97 19.3601Z" fill="#FFC222"/>
</svg>
