<svg width="25" height="24" viewBox="0 0 25 24" fill="none" xmlns="http://www.w3.org/2000/svg">
<g clip-path="url(#clip0_12_120)">
<path d="M18.565 14.2403C17.7117 14.2403 16.9917 14.547 16.405 15.1603C15.8184 15.7736 15.525 16.4936 15.525 17.3203C15.525 18.147 15.8184 18.8536 16.405 19.4403C16.9917 20.027 17.6984 20.3203 18.525 20.3203C19.3517 20.3203 20.0584 20.027 20.645 19.4403C21.2317 18.8536 21.525 18.147 21.525 17.3203C21.525 16.4936 21.2317 15.7736 20.645 15.1603C20.0584 14.547 19.365 14.2403 18.565 14.2403ZM18.565 18.8003C18.1384 18.8003 17.7784 18.6536 17.485 18.3603C17.1917 18.067 17.045 17.707 17.045 17.2803C17.045 16.8536 17.1917 16.4936 17.485 16.2003C17.7784 15.907 18.125 15.7603 18.525 15.7603C18.925 15.7603 19.2717 15.907 19.565 16.2003C19.8584 16.4936 20.005 16.8536 20.005 17.2803C20.005 17.707 19.8584 18.067 19.565 18.3603C19.2717 18.6536 18.9384 18.8003 18.565 18.8003ZM8.16503 14.2403C7.36503 14.2403 6.6717 14.547 6.08503 15.1603C5.49836 15.7736 5.20503 16.4936 5.20503 17.3203C5.20503 18.147 5.49836 18.8536 6.08503 19.4403C6.6717 20.027 7.37836 20.3203 8.20503 20.3203C9.0317 20.3203 9.73836 20.027 10.325 19.4403C10.9117 18.8536 11.205 18.147 11.205 17.3203C11.205 16.4936 10.9117 15.7736 10.325 15.1603C9.73836 14.547 9.01836 14.2403 8.16503 14.2403ZM8.16503 18.8003C7.7917 18.8003 7.44503 18.6536 7.12503 18.3603C6.80503 18.067 6.64503 17.707 6.64503 17.2803C6.64503 16.8536 6.80503 16.4936 7.12503 16.2003C7.44503 15.907 7.80503 15.7603 8.20503 15.7603C8.60503 15.7603 8.9517 15.907 9.24503 16.2003C9.53836 16.4936 9.68503 16.8536 9.68503 17.2803C9.68503 17.707 9.53836 18.067 9.24503 18.3603C8.9517 18.6536 8.5917 18.8003 8.16503 18.8003ZM20.565 5.60031C20.405 5.33365 20.1917 5.20031 19.925 5.20031H15.925V6.72031H19.445L21.525 10.8003L22.805 10.1603L20.565 5.60031ZM10.565 16.5603H16.245V18.0803H10.565V16.5603ZM5.92503 16.5603H3.28503C3.0717 16.5603 2.89836 16.6403 2.76503 16.8003C2.6317 16.9603 2.56503 17.1336 2.56503 17.3203C2.56503 17.507 2.6317 17.6803 2.76503 17.8403C2.89836 18.0003 3.0717 18.0803 3.28503 18.0803H5.92503C6.13836 18.0803 6.3117 18.0003 6.44503 17.8403C6.57836 17.6803 6.64503 17.507 6.64503 17.3203C6.64503 17.1336 6.57836 16.9603 6.44503 16.8003C6.3117 16.6403 6.13836 16.5603 5.92503 16.5603ZM24.245 11.9203L22.725 10.0003C22.6184 9.84031 22.4317 9.76031 22.165 9.76031H16.645V4.40031C16.645 4.24031 16.5784 4.08031 16.445 3.92031C16.3117 3.76031 16.1384 3.68031 15.925 3.68031H3.28503C3.0717 3.68031 2.89836 3.76031 2.76503 3.92031C2.6317 4.08031 2.56503 4.25365 2.56503 4.44031C2.56503 4.62698 2.6317 4.80031 2.76503 4.96031C2.89836 5.12031 3.0717 5.20031 3.28503 5.20031H15.125V10.4803C15.125 10.6936 15.205 10.8803 15.365 11.0403C15.525 11.2003 15.7117 11.2803 15.925 11.2803H21.765L22.885 12.6403V16.5603H20.805C20.5917 16.5603 20.405 16.6403 20.245 16.8003C20.085 16.9603 20.005 17.1336 20.005 17.3203C20.005 17.507 20.085 17.6803 20.245 17.8403C20.405 18.0003 20.5917 18.0803 20.805 18.0803H23.685C23.845 18.0803 24.005 18.0003 24.165 17.8403C24.325 17.6803 24.405 17.4936 24.405 17.2803V12.4003C24.405 12.2403 24.3517 12.0803 24.245 11.9203ZM5.84503 12.7203H2.40503C2.1917 12.7203 2.00503 12.8003 1.84503 12.9603C1.68503 13.1203 1.60503 13.307 1.60503 13.5203C1.60503 13.7336 1.68503 13.907 1.84503 14.0403C2.00503 14.1736 2.1917 14.2403 2.40503 14.2403H5.84503C6.05836 14.2403 6.24503 14.1736 6.40503 14.0403C6.56503 13.907 6.64503 13.7336 6.64503 13.5203C6.64503 13.307 6.56503 13.1203 6.40503 12.9603C6.24503 12.8003 6.05836 12.7203 5.84503 12.7203ZM7.60503 9.76031H1.12503C0.965029 9.76031 0.805029 9.82698 0.645029 9.96031C0.485029 10.0936 0.405029 10.267 0.405029 10.4803C0.405029 10.6936 0.485029 10.8803 0.645029 11.0403C0.805029 11.2003 0.965029 11.2803 1.12503 11.2803H7.60503C7.81836 11.2803 8.00503 11.2003 8.16503 11.0403C8.32503 10.8803 8.40503 10.6936 8.40503 10.4803C8.40503 10.267 8.32503 10.0936 8.16503 9.96031C8.00503 9.82698 7.81836 9.76031 7.60503 9.76031ZM8.88503 6.80031H2.40503C2.1917 6.80031 2.00503 6.86698 1.84503 7.00031C1.68503 7.13365 1.60503 7.30698 1.60503 7.52031C1.60503 7.73365 1.68503 7.92031 1.84503 8.08031C2.00503 8.24031 2.1917 8.32031 2.40503 8.32031H8.88503C9.04503 8.32031 9.20503 8.24031 9.36503 8.08031C9.52503 7.92031 9.60503 7.73365 9.60503 7.52031C9.60503 7.30698 9.52503 7.13365 9.36503 7.00031C9.20503 6.86698 9.04503 6.80031 8.88503 6.80031Z" fill="white"/>
</g>
<defs>
<clipPath id="clip0_12_120">
<rect width="24.81" height="24" fill="white" transform="matrix(1 0 0 -1 0 24)"/>
</clipPath>
</defs>
</svg>
