<svg width="51" height="51" viewBox="0 0 51 51" fill="none" xmlns="http://www.w3.org/2000/svg">
<path d="M14.7633 6.57344L17.5366 8.82677L16.6699 12.2934C16.5544 12.7557 16.6699 13.1601 17.0166 13.5068C17.2477 13.6223 17.4788 13.6801 17.7099 13.6801C17.941 13.6801 18.1144 13.6223 18.2299 13.5068L21.3499 11.6001L24.2966 13.5068C24.6433 13.7379 25.0477 13.709 25.5099 13.4201C25.9722 13.1312 26.0877 12.7557 25.8566 12.2934L24.9899 8.82677L27.7633 6.57344C28.1099 6.22677 28.2255 5.82233 28.1099 5.3601C27.9944 4.89788 27.6477 4.66677 27.0699 4.66677L23.6033 4.49344L22.3899 1.2001C22.1588 0.737881 21.8122 0.506771 21.3499 0.506771C20.7722 0.506771 20.4255 0.737881 20.3099 1.2001L18.9233 4.49344L15.4566 4.66677C14.9944 4.66677 14.6766 4.89788 14.5033 5.3601C14.3299 5.82233 14.4166 6.22677 14.7633 6.57344ZM19.4433 6.05344C19.9055 6.05344 20.1944 5.82233 20.3099 5.3601L21.3499 3.10677L22.2166 5.3601C22.3322 5.82233 22.621 6.05344 23.0833 6.05344L25.6833 6.22677L23.7766 7.78677C23.3144 8.13344 23.141 8.53788 23.2566 9.0001L23.9499 11.4268L21.8699 10.0401C21.6388 9.92455 21.4366 9.86677 21.2633 9.86677C21.0899 9.86677 20.8877 9.92455 20.6566 10.0401L18.5766 11.4268L19.2699 9.0001C19.3855 8.53788 19.2699 8.13344 18.9233 7.78677L16.8433 6.22677L19.4433 6.05344ZM7.82993 16.6268L10.7766 18.7068C11.2388 18.9379 11.6722 18.909 12.0766 18.6201C12.481 18.3312 12.6255 17.9557 12.5099 17.4934L11.6433 14.0268L14.4166 11.7734C14.7633 11.4268 14.8499 11.0223 14.6766 10.5601C14.5033 10.0979 14.1855 9.86677 13.7233 9.86677L10.0833 9.69344L8.86993 6.4001C8.75437 5.82233 8.40771 5.53344 7.82993 5.53344C7.36771 5.53344 7.02104 5.82233 6.78993 6.4001L5.5766 9.69344L2.10993 9.86677C1.53215 9.86677 1.1566 10.0979 0.983263 10.5601C0.809929 11.0223 0.954374 11.4268 1.4166 11.7734L4.18993 14.0268L3.14993 17.4934C3.03437 17.9557 3.20771 18.3023 3.66993 18.5334C3.90104 18.7645 4.10326 18.8801 4.2766 18.8801C4.44993 18.8801 4.65215 18.8223 4.88326 18.7068L7.82993 16.6268ZM3.4966 11.4268L5.92326 11.2534C6.50104 11.2534 6.84771 11.0223 6.96326 10.5601L7.82993 8.13344L8.6966 10.5601C8.92771 11.0223 9.27437 11.2534 9.7366 11.2534L12.3366 11.4268L10.2566 12.9868C9.90993 13.2179 9.79437 13.5645 9.90993 14.0268L10.6033 16.4534L8.52326 15.0668C8.29215 14.9512 8.06104 14.8934 7.82993 14.8934C7.59882 14.8934 7.42549 14.9512 7.30993 15.0668L5.22993 16.4534L5.74993 14.0268C5.98104 13.5645 5.86548 13.2179 5.40326 12.9868L3.4966 11.4268ZM27.9366 10.5601C27.7055 11.0223 27.821 11.4268 28.2833 11.7734L31.0566 14.0268L30.0166 17.4934C29.901 17.9557 30.0744 18.3023 30.5366 18.5334C30.6522 18.7645 30.8255 18.8801 31.0566 18.8801C31.2877 18.8801 31.5188 18.8223 31.7499 18.7068L34.6966 16.6268L37.6433 18.7068C38.1055 18.9379 38.5388 18.909 38.9433 18.6201C39.3477 18.3312 39.4921 17.9557 39.3766 17.4934L38.3366 14.0268L41.1099 11.7734C41.5722 11.4268 41.7166 11.0223 41.5433 10.5601C41.3699 10.0979 41.0522 9.86677 40.5899 9.86677L36.9499 9.69344L35.7366 6.4001C35.5055 5.82233 35.1588 5.53344 34.6966 5.53344C34.2344 5.53344 33.8877 5.82233 33.6566 6.4001L32.4433 9.69344L28.8033 9.86677C28.341 9.86677 28.0522 10.0979 27.9366 10.5601ZM32.7899 11.2534C33.2522 11.2534 33.5988 11.0223 33.8299 10.5601L34.6966 8.13344L35.5633 10.5601C35.7944 11.0223 36.141 11.2534 36.6033 11.2534L39.0299 11.4268L37.1233 12.9868C36.7766 13.2179 36.661 13.5645 36.7766 14.0268L37.4699 16.4534L35.2166 15.0668C35.101 14.9512 34.9277 14.8934 34.6966 14.8934C34.4655 14.8934 34.2344 14.9512 34.0033 15.0668L31.9233 16.4534L32.6166 14.0268C32.7322 13.5645 32.6166 13.2179 32.2699 12.9868L30.3633 11.4268L32.7899 11.2534ZM40.4166 31.5334C38.9144 31.5334 37.4988 31.8512 36.1699 32.4868C34.841 33.1223 33.7144 34.0179 32.7899 35.1734C30.7099 33.0934 28.2833 31.7068 25.5099 31.0134C26.8966 30.2045 27.9944 29.1068 28.8033 27.7201C29.6122 26.3334 30.0166 24.8312 30.0166 23.2134C30.0166 20.7868 29.1788 18.7357 27.5033 17.0601C25.8277 15.3845 23.7766 14.5468 21.3499 14.5468C18.9233 14.5468 16.8433 15.3845 15.1099 17.0601C13.3766 18.7357 12.5099 20.7868 12.5099 23.2134C12.5099 24.8312 12.9144 26.3334 13.7233 27.7201C14.5322 29.1068 15.6299 30.2045 17.0166 31.0134C14.4744 31.7068 12.221 32.9201 10.2566 34.6534C8.63882 36.0401 7.3966 37.629 6.52993 39.4201C5.66326 41.2112 5.11437 43.1468 4.88326 45.2268C4.76771 45.4579 4.7966 45.6601 4.96993 45.8334C5.14326 46.0068 5.34548 46.0934 5.5766 46.0934H32.0966C32.9055 47.4801 34.061 48.6068 35.5633 49.4734C37.0655 50.3401 38.6833 50.7734 40.4166 50.7734C43.0744 50.7734 45.3566 49.849 47.2633 48.0001C49.1699 46.1512 50.1233 43.869 50.1233 41.1534C50.1233 38.4379 49.1699 36.1557 47.2633 34.3068C45.3566 32.4579 43.0744 31.5334 40.4166 31.5334ZM14.0699 23.2134C14.0699 21.249 14.7922 19.5734 16.2366 18.1868C17.681 16.8001 19.3855 16.1068 21.3499 16.1068C23.3144 16.1068 24.9899 16.8001 26.3766 18.1868C27.7633 19.5734 28.4566 21.249 28.4566 23.2134C28.4566 25.1779 27.7633 26.8534 26.3766 28.2401C24.9899 29.6268 23.3144 30.3201 21.3499 30.3201C19.3855 30.3201 17.681 29.6268 16.2366 28.2401C14.7922 26.8534 14.0699 25.1779 14.0699 23.2134ZM6.6166 44.5334C7.19437 40.9512 8.86993 37.9757 11.6433 35.6068C14.4166 33.2379 17.6522 32.0534 21.3499 32.0534C23.3144 32.0534 25.221 32.429 27.0699 33.1801C28.9188 33.9312 30.5366 35.0579 31.9233 36.5601C31.1144 37.9468 30.7099 39.5068 30.7099 41.2401C30.7099 42.2801 30.8833 43.3779 31.2299 44.5334H6.6166ZM40.4166 49.2134C38.221 49.2134 36.3144 48.4334 34.6966 46.8734C33.0788 45.3134 32.2699 43.4068 32.2699 41.1534C32.2699 38.9001 33.0788 36.9934 34.6966 35.4334C36.3144 33.8734 38.221 33.0934 40.4166 33.0934C42.6122 33.0934 44.4899 33.8734 46.0499 35.4334C47.6099 36.9934 48.3899 38.9001 48.3899 41.1534C48.3899 43.4068 47.6099 45.3134 46.0499 46.8734C44.4899 48.4334 42.6122 49.2134 40.4166 49.2134ZM45.9633 37.0801C45.501 36.6179 44.981 36.3868 44.4033 36.3868C43.8255 36.3868 43.3633 36.6179 43.0166 37.0801L39.2033 40.7201L37.8166 39.3334C37.3544 38.9868 36.8344 38.8134 36.2566 38.8134C35.6788 38.8134 35.1877 39.0157 34.7833 39.4201C34.3788 39.8245 34.1766 40.3157 34.1766 40.8934C34.1766 41.4712 34.4077 41.9912 34.8699 42.4534L37.6433 45.2268C38.1055 45.689 38.6255 45.9201 39.2033 45.9201C39.781 45.9201 40.301 45.689 40.7633 45.2268L45.9633 40.0268C46.3099 39.5645 46.4833 39.0445 46.4833 38.4668C46.4833 37.889 46.3099 37.4268 45.9633 37.0801ZM44.7499 38.8134C44.4033 39.2757 43.7677 39.9112 42.8433 40.7201L39.5499 44.1868C39.3188 44.4179 39.0877 44.4179 38.8566 44.1868L35.9099 41.2401C35.6788 41.009 35.6499 40.8068 35.8233 40.6334C35.9966 40.4601 36.141 40.3734 36.2566 40.3734C36.3722 40.3734 36.4877 40.4312 36.6033 40.5468L38.6833 42.4534C38.7988 42.6845 38.9721 42.8001 39.2033 42.8001C39.4344 42.8001 39.6077 42.6845 39.7233 42.4534L44.0566 38.1201C44.1721 38.0045 44.2877 37.9468 44.4033 37.9468C44.5188 37.9468 44.6633 38.0334 44.8366 38.2068C45.0099 38.3801 44.981 38.5823 44.7499 38.8134Z" fill="#FFC222"/>
</svg>
