<svg width="95" height="21" viewBox="0 0 95 21" fill="none" xmlns="http://www.w3.org/2000/svg">
<path d="M75.0489 4.95375L78.7961 5.43375C81.101 5.67163 83.0222 6.07156 84.6396 6.30001L86.8494 6.63099L88.6175 6.95956C89.6597 7.13769 90.4612 7.25128 91.0718 7.31194C93.5126 7.56896 92.8924 6.95682 93.0096 6.44542C93.1268 5.93402 93.9088 5.69089 91.518 4.77894C90.9213 4.56009 90.1258 4.29489 89.0739 3.97826L87.2947 3.44585L85.0556 2.9529C83.4273 2.60033 81.4315 2.14315 79.0597 1.84146L75.209 1.30171C73.8101 1.14309 72.333 1.05008 70.7302 0.90261C63.221 0.348332 55.676 0.513099 48.1981 1.39467C40.0978 2.36312 32.1241 4.19392 24.4126 6.85594C18.2737 8.93772 12.3587 11.629 6.75613 14.8893C5.07323 15.8456 3.44537 16.8957 1.88026 18.0346C0.760321 18.8278 0.181702 19.3133 0.246054 19.4059C0.579951 19.9785 10.8107 13.5125 25.3423 9.31369C32.9803 7.04756 40.8196 5.52544 48.7506 4.76856C56.0482 4.08463 63.3905 4.01686 70.6995 4.56599L75.0136 4.94343" fill="#FFD43A"/>
</svg>
