<svg width="16" height="16" viewBox="0 0 16 16" fill="none" xmlns="http://www.w3.org/2000/svg">
<path d="M7.08428 1.37219C7.24834 1.04407 7.51266 0.880005 7.87725 0.880005C8.24183 0.880005 8.50615 1.04407 8.67021 1.37219L10.4476 4.98157L14.4397 5.58313C14.8043 5.61959 15.0413 5.81099 15.1507 6.15735C15.2601 6.5037 15.1871 6.80448 14.9319 7.05969L12.0335 9.8761L12.7171 13.8683C12.7718 14.2146 12.6533 14.4881 12.3616 14.6886C12.07 14.9073 11.7692 14.9347 11.4593 14.7706L7.87725 12.9113L4.29521 14.7706C3.98532 14.9529 3.68454 14.9347 3.39287 14.7159C3.1012 14.4972 2.98271 14.2146 3.0374 13.8683L3.721 9.8761L0.822558 7.05969C0.56735 6.80448 0.494433 6.5037 0.603808 6.15735C0.713183 5.81099 0.950163 5.61959 1.31475 5.58313L5.30693 4.98157L7.08428 1.37219Z" fill="#FFC222"/>
</svg>
